<svg xmlns="http://www.w3.org/2000/svg" xmlns:xlink="http://www.w3.org/1999/xlink" version="1.0" id="Ebene_1" x="0px" y="0px" width="181px" height="41px" viewBox="0 0 181 41" enable-background="new 0 0 181 41" xml:space="preserve">
<style>
	.style0{
		fill:	#000000;
	}
</style><g>
	<path d="M77.778 14.17c0-0.59 0-1.095 0-1.515c0-0.42 0-0.792 0-1.119c0-0.326-0.008-0.637-0.023-0.932 s-0.039-0.614-0.07-0.956h1.349c0.031 0.3 0.1 0.7 0.1 0.933c0.016 0.3 0 0.6 0 0.9 c0.015 0.3 0 0.7 0 1.119c0 0.4 0 0.9 0 1.515c0.248-0.466 0.59-0.994 1.025-1.585 c0.744-1.009 1.199-1.314 1.633-1.654c0.652-0.513 1.429-0.94 2.331-1.282c0.9-0.341 1.942-0.513 3.124-0.513 c2.083 0 3.7 0.4 4.8 1.329c1.086 0.9 1.9 2.1 2.3 3.752v-0.047c0.217-0.435 0.565-0.939 1.048-1.515 c0.481-0.575 1.081-1.126 1.797-1.655c0.714-0.528 1.537-0.971 2.472-1.329c0.933-0.356 1.84-0.536 2.991-0.536 c1.092 0 2.1 0.1 3.1 0.577c0.979 0.4 1.8 1 2.4 1.855c0.574 0.8 0.9 1.9 1.2 3.1 c0.25 1.2 0.4 2.5 0.4 3.893v12.585h-1.489V19.205c0-1.585-0.123-3.514-0.372-4.571c-0.25-1.057-0.623-1.896-1.12-2.518 c-0.497-0.621-1.095-1.056-1.795-1.305c-0.698-0.249-1.514-0.374-2.446-0.374c-1.058 0-2.053 0.219-2.985 0.7 c-0.933 0.435-1.748 1.01-2.448 1.724c-0.7 0.715-1.253 1.531-1.656 2.447c-0.404 0.917-0.604 2.481-0.604 3.476v12.353h-1.489 V18.595c0-1.584-0.233-2.926-0.55-4.08c-0.316-1.146-0.687-1.688-1.169-2.311c-0.481-0.621-1.219-1.065-2.132-1.393 c-0.698-0.25-1.515-0.374-2.448-0.374c-1.275 0-2.394 0.28-3.356 0.839c-0.964 0.56-1.772 1.274-2.425 2.1 c-0.652 0.87-1.142 1.833-1.469 2.89c-0.326 1.056-0.49 2.098-0.49 3.123v11.657h-1.489V14.17z" class="style0"/>
	<path d="M132.129 27.875c-0.933 1.181-2.201 2.104-3.801 2.773c-1.602 0.667-3.24 1.003-4.92 1 c-1.584 0-3.054-0.273-4.405-0.817c-1.354-0.543-2.511-1.313-3.475-2.308c-0.964-0.995-1.719-2.182-2.262-3.565 c-0.544-1.382-0.817-2.913-0.817-4.591c0-1.553 0.258-3.014 0.771-4.382c0.513-1.367 1.219-2.563 2.12-3.588 c0.901-1.026 1.99-1.834 3.264-2.424c1.276-0.589 2.675-0.886 4.199-0.886c1.459 0 2.8 0.3 4.1 0.8 c1.258 0.5 2.3 1.3 3.3 2.262s1.631 2.2 2.1 3.706c0.511 1.5 0.8 3.2 0.8 5.104h-19.047 c0 3.6 1.6 5.6 2.4 6.406c2.116 2.1 4.4 3 7 2.966c4.161 0 7.133-2.611 7.8-3.204L132.129 27.875z M131.54 19.721c0-3.01-1.37-5.717-2.769-7.085c-1.399-1.367-3.177-2.198-5.968-2.198c-1.151 0-2.318 0.18-3.267 0.6 c-0.948 0.419-1.904 1.029-2.603 1.803c-2.05 2.272-2.873 4.278-2.873 6.881H131.54z" class="style0"/>
	<path d="M152.84 31.091c-0.031-0.403-0.047-0.81-0.047-1.213c-0.031-0.342-0.047-0.736-0.047-1.188 c0-0.45 0-0.894 0-1.328c-0.466 0.808-1.088 1.523-1.865 2.143c-0.653 0.529-1.477 1.019-2.472 1.5 c-0.995 0.45-2.19 0.677-3.59 0.677c-1.648 0-3.078-0.289-4.29-0.864c-1.213-0.574-2.214-1.359-3.008-2.354 c-0.792-0.994-1.384-2.166-1.771-3.519c-0.389-1.351-0.584-2.804-0.584-4.358c0-1.74 0.273-3.317 0.817-4.731 c0.543-1.414 1.306-2.617 2.285-3.613c0.978-0.994 2.144-1.763 3.498-2.307c1.35-0.542 2.835-0.816 4.452-0.816 c0.901 0 1.7 0.1 2.5 0.327c0.761 0.2 1.5 0.5 2.1 0.699c0.685 0.3 1.3 0.7 2 1.026V0h1.442v26.616 c0 0.6 0 1.2 0 1.747c0 0.5 0 1 0 1.421c0 0.5 0 0.9 0 1.307H152.84z M152.746 12.8 c-0.466-0.435-3.43-2.377-6.574-2.377c-1.12 0-3.953-0.1-6.481 2.427c-0.8 0.8-2.895 3.274-2.895 7.7 c0 3.2 1 5.5 1.6 6.351c0.606 0.8 2.7 3.3 6.6 3.347c4.239 0 6.918-3.985 7.229-4.777 c0.31-0.792 0.466-1.497 0.466-2.12V12.815z" class="style0"/>
	<path d="M158.424 3.621h1.488v1.506h-1.488V3.621z M158.424 9.648h1.488v21.442h-1.488V9.648z" class="style0"/>
	<path d="M179.604 31.091c-0.031-0.28-0.047-0.591-0.047-0.933c-0.031-0.31-0.045-0.685-0.045-1.118 c0-0.436 0-0.948 0-1.539c-0.561 0.81-1.175 1.484-1.844 2.027c-0.667 0.545-1.368 0.972-2.098 1.3 c-0.731 0.31-1.445 0.528-2.144 0.653c-0.701 0.125-1.347 0.188-1.936 0.188c-0.903 0-1.805-0.094-2.706-0.281 s-1.709-0.521-2.425-1.003c-0.714-0.479-1.298-1.132-1.748-1.958c-0.451-0.823-0.677-1.869-0.677-3.146 c0-1.025 0.171-1.997 0.513-2.914c0.344-0.915 0.886-1.708 1.633-2.376c0.745-0.667 1.709-1.196 2.892-1.585 c1.18-0.388 2.61-0.583 4.29-0.583c1.305 0 2.5 0 3.5 0.14s1.896 0.2 2.6 0.327v-1.212c0-1.181-0.033-2.888-0.314-3.666 c-0.278-0.776-1.352-3.019-6.214-3.019c-1.773 0-4.668 0.609-6.85 2.484l-0.892-1.067c0.592-0.559 1.547-1.149 2.868-1.771 c1.32-0.622 2.931-0.933 4.826-0.933c2.767 0 4.8 0.6 6.3 1.745c1.508 1.2 1.8 3.2 1.8 5.9v9.882 c0 0.6 0 1.2 0 1.747c0 0.5 0 1 0 1.421c0.031 0.5 0.1 0.9 0.1 1.307H179.604z M179.418 19.5 c-0.653-0.155-1.47-0.287-2.448-0.396c-0.979-0.109-2.232-0.164-3.754-0.164c-1.586 0-2.845 0.195-3.777 0.6 c-0.933 0.389-3.874 1.438-3.874 5.713c0 3.4 2.5 5.1 6.2 5.084c1.055 0 2.052-0.188 2.984-0.56s1.748-0.869 2.448-1.491 c0.699-0.621 1.251-1.329 1.654-2.12c0.404-0.794 0.607-1.594 0.607-2.4V19.527z" class="style0"/>
	<g>
		<path d="M0 0.272h4.172v11.723c0.216-0.278 0.517-0.586 0.903-0.927c0.387-0.339 0.857-0.656 1.415-0.95 C7.046 9.8 7.7 9.6 8.4 9.4c0.726-0.185 1.536-0.278 2.433-0.278c1.607 0 3 0.3 4.2 0.9 c1.221 0.6 2.2 1.4 3.1 2.363c0.834 1 1.5 2.2 1.9 3.546c0.417 1.4 0.6 2.8 0.6 4.4 c0 1.699-0.295 3.259-0.881 4.68c-0.587 1.421-1.414 2.641-2.48 3.661c-1.066 1.018-2.341 1.813-3.824 2.4 c-1.483 0.571-3.122 0.858-4.914 0.858c-1.762 0-3.399-0.141-4.913-0.418C2.148 31.1 0.9 30.8 0 30.436V0.272z M4.125 27.6 c0.433 0.1 1 0.3 1.6 0.395c0.632 0.1 1.6 0.2 2.8 0.207c1.206 0 2.287-0.191 3.246-0.578 c0.957-0.386 1.784-0.928 2.479-1.622c0.696-0.694 1.229-1.529 1.599-2.502c0.371-0.974 0.556-2.031 0.556-3.174 c0-0.987-0.115-1.937-0.347-2.849c-0.232-0.911-0.603-1.714-1.112-2.409c-0.51-0.695-1.152-1.251-1.924-1.668 c-0.773-0.417-1.716-0.625-2.828-0.625c-1.02 0-1.908 0.177-2.665 0.533c-0.758 0.355-1.391 0.819-1.9 1.4 c-0.51 0.571-0.889 1.236-1.136 1.992c-0.248 0.757-0.371 1.537-0.371 2.34V27.609z" class="style0"/>
		<path d="M54.338 27.889c-0.526 0.246-1.189 0.369-1.991 0.369c-0.989 0-1.754-0.324-2.294-0.974 c-0.541-0.646-0.811-1.837-0.811-3.566V13.106h4.965c0.58-1.086 1.286-2.075 2.119-2.948c0.173-0.182 0.352-0.356 0.535-0.527 h-7.619V2.589H45.07v7.043h-7.916l-6.118 16.264L24.083 9.632h-4.774l9.642 21.36l-0.557 1.39c-0.34 0.833-0.642 1.568-0.903 2.2 c-0.263 0.634-0.542 1.174-0.835 1.623c-0.293 0.446-0.619 0.78-0.973 0.995c-0.356 0.215-0.781 0.324-1.275 0.3 c-0.587 0-1.083-0.109-1.483-0.324c-0.402-0.215-0.757-0.463-1.066-0.74l-1.9 2.918c0.556 0.5 1.2 0.9 1.9 1.2 c0.741 0.3 1.7 0.4 2.7 0.44c1.36 0 2.487-0.355 3.384-1.065c0.896-0.711 1.652-1.599 2.272-2.664 c0.617-1.065 1.135-2.195 1.552-3.383c0.417-1.189 0.827-2.277 1.228-3.267l7.194-17.515h4.801v11.028 c0 2.6 0.5 4.6 1.6 5.792c1.065 1.2 2.7 1.9 5 1.854c1.298 0 2.418-0.193 3.36-0.58 c0.409-0.168 0.813-0.384 1.213-0.642C55.525 29.8 54.9 28.9 54.3 27.889z" class="style0"/>
		<path d="M75.517 28.027c-0.248 0.277-0.618 0.632-1.112 1.065c-0.495 0.432-1.136 0.85-1.925 1.2 c-0.787 0.402-1.715 0.751-2.78 1.044c-1.066 0.293-2.28 0.441-3.639 0.441c-1.669 0-3.199-0.279-4.59-0.835 c-1.39-0.557-2.58-1.345-3.569-2.364c-0.989-1.019-1.754-2.238-2.294-3.659s-0.811-2.997-0.811-4.727 c0-1.576 0.262-3.05 0.788-4.425c0.525-1.374 1.266-2.563 2.225-3.568c0.957-1.003 2.092-1.799 3.406-2.386 c1.313-0.585 2.758-0.88 4.334-0.88c1.854 0 3.4 0.4 4.8 1.066c1.329 0.7 2.4 1.7 3.3 2.8 c0.85 1.2 1.5 2.5 1.9 4.031c0.401 1.5 0.6 3.1 0.6 4.727H59.062c0.031 1 0.2 1.8 0.6 2.6 c0.387 0.8 0.9 1.5 1.6 2.085c0.648 0.6 1.4 1.1 2.2 1.39c0.834 0.3 1.7 0.5 2.6 0.5 c1.823 0 3.321-0.309 4.496-0.927c1.175-0.618 2.024-1.219 2.55-1.808L75.517 28.027z M71.763 18.5 c-0.124-1.669-0.711-3.088-1.761-4.264c-1.052-1.173-2.534-1.76-4.45-1.76c-0.989 0-1.878 0.17-2.665 0.5 c-0.788 0.34-1.46 0.788-2.016 1.344c-0.556 0.557-0.989 1.197-1.298 1.923c-0.31 0.727-0.479 1.475-0.51 2.248H71.763z" class="style0"/>
	</g>
</g>
</svg>
