<?xml version="1.0" standalone="no"?>
<!DOCTYPE svg PUBLIC "-//W3C//DTD SVG 20010904//EN"
 "http://www.w3.org/TR/2001/REC-SVG-20010904/DTD/svg10.dtd">
<svg version="1.0" xmlns="http://www.w3.org/2000/svg"
 width="1024.000000pt" height="1024.000000pt" viewBox="0 0 1024.000000 1024.000000"
 preserveAspectRatio="xMidYMid meet">

<g transform="translate(0.000000,1024.000000) scale(0.100000,-0.100000)"
fill="#6c757d" stroke="none">
<path d="M2702 8660 c-105 -11 -177 -26 -276 -57 l-79 -25 407 -407 408 -408
-11 -74 c-21 -152 -86 -299 -174 -395 -92 -101 -265 -200 -391 -223 -131 -24
-98 -47 -432 287 -413 412 -500 494 -501 474 0 -9 -13 -64 -27 -122 -37 -143
-47 -379 -22 -528 71 -425 369 -802 757 -961 197 -80 397 -112 583 -92 164 18
278 -5 438 -85 78 -39 84 -44 608 -552 189 -183 347 -331 352 -330 4 2 177
171 384 377 l376 374 -93 96 c-134 137 -358 359 -548 540 -172 164 -226 231
-283 346 -56 113 -73 185 -68 295 9 201 4 374 -15 460 -95 455 -413 809 -858
954 -157 51 -367 73 -535 56z"/>
<path d="M7878 8513 c-80 -65 -214 -174 -298 -243 -83 -68 -197 -160 -253
-203 -114 -88 -127 -107 -152 -232 -22 -108 -70 -202 -156 -310 -40 -49 -226
-243 -414 -430 -188 -187 -795 -796 -1348 -1353 l-1007 -1014 -92 87 c-121
114 -133 120 -238 120 -108 0 -130 -12 -256 -135 -118 -116 -135 -148 -135
-263 0 -46 2 -94 5 -108 5 -22 -2 -28 -75 -63 -79 -39 -98 -56 -617 -570 -765
-759 -848 -851 -901 -1012 -73 -219 -7 -492 156 -644 140 -131 247 -179 420
-187 133 -7 205 7 320 63 110 53 129 70 937 873 534 532 539 537 578 619 l39
82 73 0 c127 0 167 18 280 129 118 115 146 165 146 261 0 72 -30 152 -72 192
-13 13 -63 60 -112 106 l-89 83 44 47 c66 69 2147 2169 2511 2533 291 291 324
321 390 353 40 19 108 44 151 55 44 11 94 30 113 41 19 12 89 95 162 193 71
95 200 264 287 377 87 113 164 214 171 226 13 19 1 34 -196 232 -116 117 -214
212 -219 212 -4 0 -73 -53 -153 -117z"/>
<path d="M5670 5097 c-74 -73 -252 -246 -394 -385 -240 -233 -258 -253 -244
-269 45 -54 339 -394 438 -508 63 -72 216 -249 339 -391 124 -142 261 -299
306 -349 98 -109 424 -483 703 -808 258 -301 339 -383 427 -435 395 -230 904
-31 1052 413 37 111 39 274 5 385 -26 82 -68 163 -116 224 -27 33 -357 341
-516 481 -30 26 -125 112 -210 190 -85 79 -265 243 -400 366 -221 201 -396
371 -1055 1021 l-200 197 -135 -132z m2068 -2207 c70 -37 120 -89 154 -159 19
-38 23 -63 23 -141 0 -87 -3 -100 -30 -149 -34 -61 -97 -120 -163 -153 -39
-19 -63 -23 -137 -23 -76 0 -99 5 -146 27 -236 109 -266 432 -53 579 68 46
116 59 209 56 68 -3 89 -8 143 -37z"/>
</g>
</svg>
